<svg width="121" height="30" viewBox="0 0 121 30" fill="none" xmlns="http://www.w3.org/2000/svg">
<path d="M5.28375 0L12.9472 20.4209L20.5703 0H25.8541V29.8628H21.2157V18.4446L21.8207 7.99268L15.0042 26.3495H10.6885L4.0334 7.94876L4.63841 18.4446V29.8628H0V0H5.28375Z" fill="white"/>
<path d="M49.3325 24.8124V29.8628H33.441V0H48.9292V5.05032H38.281V12.2086H47.7192V17.2589H38.281V24.8124H49.3325Z" fill="white"/>
<path d="M51.7983 5.05032V0H71.9653V5.05032H64.3018V29.8628H59.4617V5.05032H51.7983Z" fill="white"/>
<path d="M88.2577 29.8628L86.5636 24.022H77.1658L75.4718 29.8628H70.6721L79.8279 0H84.1033L93.2994 29.8628H88.2577ZM79.7875 14.8875L78.5372 19.1912H85.152L83.9016 14.8875L81.8849 7.33394L79.7875 14.8875Z" fill="white"/>
<path d="M96.2243 7.1226V16.3175H94.7748V12.4748C94.3882 12.8957 94.0563 13.1793 93.779 13.3257C93.5017 13.4629 93.216 13.5316 92.9219 13.5316C92.2497 13.5316 91.7245 13.2479 91.3464 12.6807C90.9766 12.1134 90.7918 11.3175 90.7918 10.2928V9.55169C90.7918 8.55444 91.0186 7.76304 91.4724 7.17749C91.9346 6.59195 92.5984 6.29918 93.4639 6.29918C94.3714 6.29918 95.2915 6.57365 96.2243 7.1226ZM92.2791 10.2928C92.2791 10.9058 92.3673 11.3541 92.5438 11.6377C92.7286 11.9213 92.9849 12.0631 93.3126 12.0631C93.5143 12.0631 93.7244 11.9991 93.9429 11.871C94.1697 11.7429 94.447 11.4913 94.7748 11.1162V8.00091C94.5479 7.90027 94.3378 7.82708 94.1445 7.78134C93.9597 7.73559 93.7748 7.71272 93.5899 7.71272C93.1278 7.71272 92.7917 7.8774 92.5816 8.20677C92.3799 8.53614 92.2791 8.98445 92.2791 9.55169V10.2928Z" fill="white"/>
<path d="M101.979 13.3943V12.4748C101.592 12.8408 101.231 13.1107 100.895 13.2845C100.559 13.4492 100.218 13.5316 99.8738 13.5316C99.3024 13.5316 98.8613 13.3211 98.5504 12.9003C98.2394 12.4703 98.084 11.871 98.084 11.1025V6.43641H99.5335V10.9103C99.5335 11.6789 99.794 12.0631 100.315 12.0631C100.525 12.0631 100.752 12.0082 100.996 11.8984C101.248 11.7887 101.55 11.5782 101.903 11.2672V6.43641H103.353V13.3943H101.979Z" fill="white"/>
<path d="M106.836 5.11894H105.311V3.48582H106.836V5.11894ZM106.798 13.3943H105.348V6.43641H106.798V13.3943Z" fill="white"/>
<path d="M99.9047 24.236C99.6947 24.236 99.4552 24.2909 99.1863 24.4007C98.9174 24.5105 98.5981 24.7255 98.2283 25.0457V29.8628H96.7788V19.7072H98.2283V23.7694C98.6149 23.4126 98.9762 23.1564 99.3123 23.0009C99.6484 22.8454 99.993 22.7676 100.346 22.7676C100.959 22.7676 101.426 22.9826 101.745 23.4126C102.064 23.8335 102.224 24.4282 102.224 25.1967V29.8628H100.774V25.3888C100.774 24.6203 100.485 24.236 99.9047 24.236Z" fill="white"/>
<path d="M109.37 25.9652V26.7887C109.37 27.7585 109.127 28.5361 108.639 29.1217C108.152 29.7072 107.463 30 106.572 30C105.682 30 104.992 29.7072 104.505 29.1217C104.018 28.5361 103.774 27.7585 103.774 26.7887V25.9652C103.774 24.9954 104.014 24.2223 104.493 23.6459C104.98 23.0604 105.673 22.7676 106.572 22.7676C107.471 22.7676 108.16 23.0604 108.639 23.6459C109.127 24.2223 109.37 24.9954 109.37 25.9652ZM107.883 25.9652C107.883 25.4071 107.77 24.9725 107.543 24.6615C107.316 24.3413 106.992 24.1812 106.572 24.1812C106.152 24.1812 105.829 24.3413 105.602 24.6615C105.375 24.9725 105.261 25.4071 105.261 25.9652V26.7887C105.261 27.3468 105.375 27.7859 105.602 28.1061C105.829 28.4263 106.152 28.5865 106.572 28.5865C106.992 28.5865 107.316 28.4263 107.543 28.1061C107.77 27.7859 107.883 27.3468 107.883 26.7887V25.9652Z" fill="white"/>
<path d="M114.601 24.3458C114.206 24.3458 113.827 24.4145 113.466 24.5517C113.113 24.6798 112.773 24.8902 112.445 25.183V29.8628H110.996V22.9048H112.37V23.9753C112.798 23.5361 113.18 23.2251 113.517 23.0421C113.853 22.8591 114.214 22.7676 114.601 22.7676V24.3458Z" fill="white"/>
<path d="M120.71 29.9314C120.282 29.9314 119.937 29.8353 119.677 29.6432C119.424 29.451 119.24 29.2132 119.122 28.9296C118.761 29.2955 118.412 29.5654 118.076 29.7392C117.74 29.9131 117.378 30 116.992 30C116.429 30 116.013 29.8033 115.744 29.4099C115.483 29.0165 115.353 28.5178 115.353 27.914C115.353 27.5114 115.42 27.1592 115.555 26.8573C115.698 26.5462 115.929 26.3038 116.248 26.1299C116.567 25.9561 117.004 25.8692 117.559 25.8692C117.777 25.8692 118.004 25.8875 118.24 25.9241C118.475 25.9515 118.71 25.9881 118.945 26.0338V25.2242C118.945 24.8399 118.849 24.5791 118.656 24.4419C118.462 24.2955 118.202 24.2223 117.874 24.2223C117.622 24.2223 117.345 24.2589 117.042 24.3321C116.748 24.4053 116.429 24.5197 116.084 24.6752L115.668 23.3303C116.517 22.9552 117.286 22.7676 117.975 22.7676C118.597 22.7676 119.076 22.882 119.412 23.1107C119.756 23.3394 119.996 23.6414 120.13 24.0165C120.265 24.3916 120.332 24.7941 120.332 25.2242V27.9003C120.332 28.0375 120.366 28.1702 120.433 28.2983C120.508 28.4172 120.651 28.4767 120.861 28.4767H121V29.9314H120.71ZM116.752 27.8865C116.752 28.1336 116.803 28.3303 116.904 28.4767C117.004 28.6139 117.151 28.6825 117.345 28.6825C117.538 28.6825 117.756 28.6276 118 28.5178C118.244 28.4081 118.559 28.1519 118.945 27.7493V27.1592C118.509 27.0769 118.08 27.0357 117.66 27.0357C117.332 27.0357 117.097 27.1089 116.954 27.2553C116.82 27.4016 116.752 27.6121 116.752 27.8865Z" fill="white"/>
</svg>
